@startuml
hide methods
left to right direction
skinparam classAttributeIconSize 0

class WarehouseEmployee{
}

package "order"{
class Order{
-id
}





WarehouseEmployee <<entity>>
Order <<entity>>
Order <<entity>>
Shipment_method_cost <<value object>>
Customer_id <<value object>>
Total_amount_without_taxes <<value object>>
Total_amount_with_taxes <<value object>>
Payment_confirmation <<value object>>
Payment_method <<value object>>
Address <<value object>>
State <<enum>>

}
package "product"{
Product <<entity>>
}

Order "1" -- "*" Product : contains >
Order "1" -- "1" Shipment_method_cost : has >
Product  --> "1" PriceWithTaxes
Product  --> "1" PriceWithoutTaxes
Order  --> "1" Address
Address <|-- Postal
Address <|-- Billing
Order  --> "1" Customer_id
Order  --> "1" Total_amount_without_taxes
Order  --> "1" Total_amount_with_taxes
Order  --> "1" Payment_method
Order  --> "1" Payment_confirmation
Order  --> "1" State


WarehouseEmployee "1" -- "*" Order : manages >


@enduml